<svg xmlns="http://www.w3.org/2000/svg" viewBox="0 0 381.95 153.91"><defs><style>.cls-1,.cls-3{fill:#231f20;}.cls-1,.cls-2{stroke:#231f20;stroke-miterlimit:10;}.cls-2{fill:none;stroke-width:2px;}</style></defs><g id="Vrstva_2" data-name="Vrstva 2"><g id="Vrstva_1-2" data-name="Vrstva 1"><rect class="cls-1" x="1.5" y="31.5" width="7" height="79"/><path class="cls-1" d="M29.5,31.5v79h6V67.15a32.25,32.25,0,0,1,4.33-16.31,33.49,33.49,0,0,1,10-11c7.06-4.74,16.57-5.32,24.71-3.54a23.86,23.86,0,0,1,9.25,4c6.4,4.8,9.77,13.14,10.61,20.85.67,6.12.14,12.27.14,18.4V110.5h6V72.6c0-8.82.55-17.61-3.54-25.76-7-14-24.23-20.41-39-16.88A34.24,34.24,0,0,0,37.54,43.74c-.51.76-2,2.55-2,3.47L35.3,31.5Z"/><path class="cls-1" d="M150.5,110.88s-17,3.26-27.83-14.83a30.19,30.19,0,0,1-4.17-15.52V.5h7l.46,31H150.5v5.09l-25,.46.41,42.08A25.53,25.53,0,0,0,146.37,104a38.52,38.52,0,0,0,4.13.56Z"/><path class="cls-2" d="M233.75,97.1l-3.2-4.56c-7.64,7.35-17.26,13.32-27.84,13.9a31.37,31.37,0,0,1-22.81-8.28l52.19-52.45a1.74,1.74,0,0,0,.65-1.1,1.6,1.6,0,0,0-.36-.91,28,28,0,0,0-9.93-8.81,43.7,43.7,0,0,0-27.64-5.15,43.49,43.49,0,0,0-11.35,3.32A39.41,39.41,0,0,0,166,47.91a41.84,41.84,0,0,0-2.63,5,43.24,43.24,0,0,0-2,5.26,44.86,44.86,0,0,0-1.27,5.48,43.38,43.38,0,0,0-.56,5.59,42.07,42.07,0,0,0,.17,5.61,41.4,41.4,0,0,0,.91,5.53c.32,1.32.7,2.63,1.14,3.91a42,42,0,0,0,72,12.86Z"/><path class="cls-1" d="M248.5,110.5h6V68.35c0-6.37-.29-12.86,2.32-18.82A25.3,25.3,0,0,1,267.28,37.6a21.91,21.91,0,0,1,2.94-1.38c6-2.27,12.89-1.57,18.68,1a11.58,11.58,0,0,1,5.25,4.11,3.28,3.28,0,0,1,.35.67V35.45s-1.68-3.11-8.13-5c-9.94-3-21.38.45-28.89,7.31-.64.58-3,2.45-3,3.34V31.5h-6Z"/><path class="cls-1" d="M380.13,94.07a37.41,37.41,0,0,1-1.81-3.5A37.18,37.18,0,0,1,326,98.36l52.83-54.5c.85-.88-9.09-8.18-10.13-8.78a40,40,0,0,0-13-4.71,44.18,44.18,0,0,0-27.25,3.78c-5.21,2.58-9.34,6.28-13.29,10.48s-6.15,10.13-7.49,15.5a43.55,43.55,0,0,0-.72,17.5,41,41,0,0,0,3.21,10.5A41.84,41.84,0,0,0,381.33,96C380.91,95.37,380.51,94.73,380.13,94.07Z"/><path class="cls-2" d="M175.1,92.57l50.21-48.81A41.12,41.12,0,0,0,200,35.18a37,37,0,0,0-8.84,1.24,35.85,35.85,0,0,0-4.25,1.41,38.24,38.24,0,0,0-4,1.92,35.36,35.36,0,0,0-3.76,2.42,30.91,30.91,0,0,0-8.38,10.27,38.5,38.5,0,0,0-2,4.16A37.23,37.23,0,0,0,167.29,61,35.32,35.32,0,0,0,166.06,69,31.75,31.75,0,0,0,175.1,92.57Z"/><circle class="cls-1" cx="4.5" cy="10.5" r="4"/><path class="cls-3" d="M99.54,134.8v14.7H98.41V134.8Z"/><path class="cls-3" d="M106,141.65c0-.93,0-1.81,0-2.65h1c0,.34.06,1.7,0,2a3.42,3.42,0,0,1,3.49-2.24c1.86,0,3.52,1.05,3.52,3.94v6.81h-1v-6.64c0-1.87-.77-3.08-2.6-3.08-2.5,0-3.36,2.07-3.36,4.36v5.36h-1Z"/><path class="cls-3" d="M118.78,139h2v-3.28h1V139h2.5v1h-2.5v6.82c0,1.18.25,1.85,1.26,1.85a3.78,3.78,0,0,0,1.09-.13v.93a3.86,3.86,0,0,1-1.3.18c-1.34,0-2.1-.67-2.1-2.35V140h-2Z"/><path class="cls-3" d="M129.4,144.37c0,2.71,1.39,4.39,3.4,4.39a3,3,0,0,0,3-2h1.07a4,4,0,0,1-4.14,3c-3.19,0-4.43-2.75-4.43-5.42,0-3,1.49-5.58,4.56-5.58,3.23,0,4.26,2.79,4.26,4.76,0,.3,0,.59,0,.86Zm6.66-.92c0-2.08-1.16-3.72-3.21-3.72s-3.15,1.52-3.38,3.72Z"/><path class="cls-3" d="M142.59,141.85c0-1.76,0-2.51,0-2.85h1c0,.34,0,1,0,2.35a4,4,0,0,1,3.65-2.6v1.13a3.8,3.8,0,0,0-3.65,4.16v5.46h-1Z"/><path class="cls-3" d="M152.1,134h1.05v2H152.1Zm0,5h1.05v10.5H152.1Z"/><path class="cls-3" d="M168,144.23c0,2.92-1.62,5.52-4.75,5.52-2.83,0-4.6-2.33-4.6-5.5,0-3,1.66-5.5,4.71-5.5C166.13,138.75,168,140.93,168,144.23Zm-8.23,0c0,2.5,1.34,4.51,3.57,4.51s3.55-1.87,3.55-4.51c0-2.48-1.26-4.52-3.6-4.52S159.75,141.73,159.75,144.25Z"/><path class="cls-3" d="M173.46,141.85c0-1.76,0-2.51,0-2.85h1c0,.34,0,1,0,2.35a4,4,0,0,1,3.65-2.6v1.13a3.8,3.8,0,0,0-3.65,4.16v5.46h-1Z"/><path class="cls-3" d="M199.58,134v12.45c0,1,0,2,0,3h-1a16.91,16.91,0,0,1-.07-1.77,3.44,3.44,0,0,1-3.53,2c-2.72,0-4.36-2.23-4.36-5.38s1.78-5.62,4.64-5.62c2.1,0,2.94.9,3.25,1.57V134Zm-7.83,10.31c0,2.88,1.49,4.43,3.3,4.43,2.77,0,3.52-1.91,3.52-4.76s-.65-4.27-3.33-4.27C193.16,139.73,191.75,141.39,191.75,144.33Z"/><path class="cls-3" d="M205.9,134h1v2h-1Zm0,5h1v10.5h-1Z"/><path class="cls-3" d="M213.17,146.6a2.78,2.78,0,0,0,3,2.18c1.87,0,2.63-.86,2.63-2s-.51-1.79-2.86-2.35c-2.71-.66-3.38-1.47-3.38-2.86s1.09-2.79,3.47-2.79a3.35,3.35,0,0,1,3.67,2.94h-1.05a2.48,2.48,0,0,0-2.67-2c-1.82,0-2.35.91-2.35,1.75s.51,1.44,2.58,1.95c3,.71,3.7,1.68,3.7,3.25,0,1.91-1.55,3.09-3.76,3.09-2.39,0-3.74-1.26-4-3.15Z"/><path class="cls-3" d="M225.37,134h1v2h-1Zm0,5h1v10.5h-1Z"/><path class="cls-3" d="M232.74,141.65c0-.93,0-1.81,0-2.65h1c0,.34.06,1.7,0,2a3.43,3.43,0,0,1,3.49-2.24c1.87,0,3.52,1.05,3.52,3.94v6.81h-1.05v-6.64c0-1.87-.77-3.08-2.6-3.08-2.5,0-3.36,2.07-3.36,4.36v5.36h-1Z"/><path class="cls-3" d="M255.15,148.78c0,3.36-1.49,5.13-4.54,5.13-2.73,0-3.86-1.54-4.11-3.13h1.07a2.9,2.9,0,0,0,3.08,2.14c2.73,0,3.49-1.76,3.49-4.43V147.4a3.34,3.34,0,0,1-3.51,2.1c-2.45,0-4.34-2-4.34-5.25,0-3.53,2-5.5,4.49-5.5,2.14,0,3.07,1,3.36,1.85,0-.61,0-1.35.06-1.6h1c0,.38,0,2,0,3Zm-7.75-4.57c0,2.5,1.32,4.3,3.34,4.3,2.62,0,3.42-1.74,3.42-4.47s-.84-4.31-3.36-4.31S247.4,141.81,247.4,144.21Z"/></g></g></svg>